<mxfile host="app.diagrams.net" modified="2022-03-12T09:19:10.576Z" agent="5.0 (Windows NT 10.0; Win64; x64) AppleWebKit/537.36 (KHTML, like Gecko) Chrome/99.0.4844.51 Safari/537.36" etag="C2tRYW_VmdDWErubq7gt" version="17.1.2" type="github">
  <diagram id="C5RBs43oDa-KdzZeNtuy" name="Page-1">
    <mxGraphModel dx="903" dy="476" grid="1" gridSize="10" guides="1" tooltips="1" connect="1" arrows="1" fold="1" page="1" pageScale="1" pageWidth="827" pageHeight="1169" math="0" shadow="0">
      <root>
        <mxCell id="WIyWlLk6GJQsqaUBKTNV-0" />
        <mxCell id="WIyWlLk6GJQsqaUBKTNV-1" parent="WIyWlLk6GJQsqaUBKTNV-0" />
        <mxCell id="W3QgEm8a1RhK3dGbXsYR-3" value="" style="edgeStyle=orthogonalEdgeStyle;rounded=0;orthogonalLoop=1;jettySize=auto;html=1;fontColor=#1A1A1A;" parent="WIyWlLk6GJQsqaUBKTNV-1" source="W3QgEm8a1RhK3dGbXsYR-0" target="W3QgEm8a1RhK3dGbXsYR-2" edge="1">
          <mxGeometry relative="1" as="geometry" />
        </mxCell>
        <mxCell id="W3QgEm8a1RhK3dGbXsYR-0" value="选择帖子&lt;br&gt;进入帖子详情页" style="whiteSpace=wrap;html=1;rounded=0;glass=0;strokeWidth=1;shadow=0;strokeColor=#666666;fontColor=#1A1A1A;" parent="WIyWlLk6GJQsqaUBKTNV-1" vertex="1">
          <mxGeometry x="120" y="290" width="120" height="40" as="geometry" />
        </mxCell>
        <mxCell id="W3QgEm8a1RhK3dGbXsYR-5" value="" style="edgeStyle=orthogonalEdgeStyle;rounded=0;orthogonalLoop=1;jettySize=auto;html=1;fontColor=#1A1A1A;" parent="WIyWlLk6GJQsqaUBKTNV-1" source="W3QgEm8a1RhK3dGbXsYR-2" target="W3QgEm8a1RhK3dGbXsYR-4" edge="1">
          <mxGeometry relative="1" as="geometry" />
        </mxCell>
        <mxCell id="W3QgEm8a1RhK3dGbXsYR-2" value="点击举报" style="whiteSpace=wrap;html=1;rounded=0;glass=0;strokeWidth=1;shadow=0;strokeColor=#666666;fontColor=#1A1A1A;" parent="WIyWlLk6GJQsqaUBKTNV-1" vertex="1">
          <mxGeometry x="120" y="360" width="120" height="30" as="geometry" />
        </mxCell>
        <mxCell id="W3QgEm8a1RhK3dGbXsYR-7" value="" style="edgeStyle=orthogonalEdgeStyle;rounded=0;orthogonalLoop=1;jettySize=auto;html=1;fontColor=#1A1A1A;" parent="WIyWlLk6GJQsqaUBKTNV-1" source="W3QgEm8a1RhK3dGbXsYR-4" target="W3QgEm8a1RhK3dGbXsYR-6" edge="1">
          <mxGeometry relative="1" as="geometry" />
        </mxCell>
        <mxCell id="W3QgEm8a1RhK3dGbXsYR-4" value="输入举报内容" style="whiteSpace=wrap;html=1;rounded=0;glass=0;strokeWidth=1;shadow=0;strokeColor=#666666;fontColor=#1A1A1A;" parent="WIyWlLk6GJQsqaUBKTNV-1" vertex="1">
          <mxGeometry x="120" y="420" width="120" height="50" as="geometry" />
        </mxCell>
        <mxCell id="W3QgEm8a1RhK3dGbXsYR-8" style="edgeStyle=orthogonalEdgeStyle;rounded=0;orthogonalLoop=1;jettySize=auto;html=1;entryX=1;entryY=0.5;entryDx=0;entryDy=0;fontColor=#1A1A1A;" parent="WIyWlLk6GJQsqaUBKTNV-1" source="W3QgEm8a1RhK3dGbXsYR-6" target="W3QgEm8a1RhK3dGbXsYR-0" edge="1">
          <mxGeometry relative="1" as="geometry">
            <Array as="points">
              <mxPoint x="290" y="530" />
              <mxPoint x="290" y="310" />
            </Array>
          </mxGeometry>
        </mxCell>
        <mxCell id="W3QgEm8a1RhK3dGbXsYR-30" value="否" style="edgeLabel;html=1;align=center;verticalAlign=middle;resizable=0;points=[];fontColor=#1A1A1A;" parent="W3QgEm8a1RhK3dGbXsYR-8" vertex="1" connectable="0">
          <mxGeometry x="-0.1898" y="-4" relative="1" as="geometry">
            <mxPoint as="offset" />
          </mxGeometry>
        </mxCell>
        <mxCell id="W3QgEm8a1RhK3dGbXsYR-10" value="是" style="edgeStyle=orthogonalEdgeStyle;rounded=0;orthogonalLoop=1;jettySize=auto;html=1;fontColor=#1A1A1A;" parent="WIyWlLk6GJQsqaUBKTNV-1" source="W3QgEm8a1RhK3dGbXsYR-6" target="W3QgEm8a1RhK3dGbXsYR-9" edge="1">
          <mxGeometry relative="1" as="geometry" />
        </mxCell>
        <mxCell id="W3QgEm8a1RhK3dGbXsYR-6" value="是否举报" style="rhombus;whiteSpace=wrap;html=1;rounded=0;glass=0;strokeWidth=1;shadow=0;strokeColor=#666666;fontColor=#1A1A1A;" parent="WIyWlLk6GJQsqaUBKTNV-1" vertex="1">
          <mxGeometry x="135" y="500" width="90" height="60" as="geometry" />
        </mxCell>
        <mxCell id="W3QgEm8a1RhK3dGbXsYR-14" value="" style="edgeStyle=orthogonalEdgeStyle;rounded=0;orthogonalLoop=1;jettySize=auto;html=1;fontColor=#1A1A1A;" parent="WIyWlLk6GJQsqaUBKTNV-1" source="W3QgEm8a1RhK3dGbXsYR-9" target="W3QgEm8a1RhK3dGbXsYR-13" edge="1">
          <mxGeometry relative="1" as="geometry" />
        </mxCell>
        <mxCell id="W3QgEm8a1RhK3dGbXsYR-9" value="提交成功" style="whiteSpace=wrap;html=1;rounded=0;glass=0;strokeWidth=1;shadow=0;strokeColor=#666666;fontColor=#1A1A1A;" parent="WIyWlLk6GJQsqaUBKTNV-1" vertex="1">
          <mxGeometry x="125" y="619" width="110" height="40" as="geometry" />
        </mxCell>
        <mxCell id="W3QgEm8a1RhK3dGbXsYR-16" value="" style="edgeStyle=orthogonalEdgeStyle;rounded=0;orthogonalLoop=1;jettySize=auto;html=1;fontColor=#1A1A1A;" parent="WIyWlLk6GJQsqaUBKTNV-1" source="W3QgEm8a1RhK3dGbXsYR-13" target="W3QgEm8a1RhK3dGbXsYR-15" edge="1">
          <mxGeometry relative="1" as="geometry" />
        </mxCell>
        <mxCell id="W3QgEm8a1RhK3dGbXsYR-13" value="管理员核实" style="whiteSpace=wrap;html=1;rounded=0;glass=0;strokeWidth=1;shadow=0;strokeColor=#666666;fontColor=#1A1A1A;" parent="WIyWlLk6GJQsqaUBKTNV-1" vertex="1">
          <mxGeometry x="290" y="619" width="110" height="40" as="geometry" />
        </mxCell>
        <mxCell id="W3QgEm8a1RhK3dGbXsYR-20" value="否" style="edgeStyle=orthogonalEdgeStyle;rounded=0;orthogonalLoop=1;jettySize=auto;html=1;fontColor=#1A1A1A;" parent="WIyWlLk6GJQsqaUBKTNV-1" source="W3QgEm8a1RhK3dGbXsYR-15" target="W3QgEm8a1RhK3dGbXsYR-19" edge="1">
          <mxGeometry relative="1" as="geometry" />
        </mxCell>
        <mxCell id="W3QgEm8a1RhK3dGbXsYR-22" value="是" style="edgeStyle=orthogonalEdgeStyle;rounded=0;orthogonalLoop=1;jettySize=auto;html=1;fontColor=#1A1A1A;" parent="WIyWlLk6GJQsqaUBKTNV-1" source="W3QgEm8a1RhK3dGbXsYR-15" target="W3QgEm8a1RhK3dGbXsYR-21" edge="1">
          <mxGeometry relative="1" as="geometry" />
        </mxCell>
        <mxCell id="W3QgEm8a1RhK3dGbXsYR-15" value="是否属实" style="rhombus;whiteSpace=wrap;html=1;rounded=0;glass=0;strokeWidth=1;shadow=0;strokeColor=#666666;" parent="WIyWlLk6GJQsqaUBKTNV-1" vertex="1">
          <mxGeometry x="430" y="604" width="95" height="70" as="geometry" />
        </mxCell>
        <mxCell id="W3QgEm8a1RhK3dGbXsYR-26" value="" style="edgeStyle=orthogonalEdgeStyle;rounded=0;orthogonalLoop=1;jettySize=auto;html=1;fontColor=#1A1A1A;" parent="WIyWlLk6GJQsqaUBKTNV-1" source="W3QgEm8a1RhK3dGbXsYR-19" target="W3QgEm8a1RhK3dGbXsYR-25" edge="1">
          <mxGeometry relative="1" as="geometry" />
        </mxCell>
        <mxCell id="W3QgEm8a1RhK3dGbXsYR-19" value="回复举报者审核结论并更新举报进度" style="whiteSpace=wrap;html=1;rounded=0;glass=0;strokeWidth=1;shadow=0;strokeColor=#666666;fontColor=#1A1A1A;" parent="WIyWlLk6GJQsqaUBKTNV-1" vertex="1">
          <mxGeometry x="423.75" y="490" width="107.5" height="60" as="geometry" />
        </mxCell>
        <mxCell id="W3QgEm8a1RhK3dGbXsYR-32" style="edgeStyle=orthogonalEdgeStyle;rounded=0;orthogonalLoop=1;jettySize=auto;html=1;entryX=1;entryY=0.5;entryDx=0;entryDy=0;fontColor=#1A1A1A;strokeColor=default;" parent="WIyWlLk6GJQsqaUBKTNV-1" source="W3QgEm8a1RhK3dGbXsYR-21" target="W3QgEm8a1RhK3dGbXsYR-19" edge="1">
          <mxGeometry relative="1" as="geometry">
            <Array as="points">
              <mxPoint x="680" y="520" />
            </Array>
          </mxGeometry>
        </mxCell>
        <mxCell id="W3QgEm8a1RhK3dGbXsYR-21" value="管理员处理&lt;br&gt;违规帖子" style="whiteSpace=wrap;html=1;rounded=0;glass=0;strokeWidth=1;shadow=0;strokeColor=#666666;fontColor=#1A1A1A;" parent="WIyWlLk6GJQsqaUBKTNV-1" vertex="1">
          <mxGeometry x="600" y="614" width="150" height="50" as="geometry" />
        </mxCell>
        <mxCell id="W3QgEm8a1RhK3dGbXsYR-33" style="edgeStyle=orthogonalEdgeStyle;rounded=0;orthogonalLoop=1;jettySize=auto;html=1;entryX=0;entryY=0.5;entryDx=0;entryDy=0;fontColor=#1A1A1A;" parent="WIyWlLk6GJQsqaUBKTNV-1" source="W3QgEm8a1RhK3dGbXsYR-25" target="W3QgEm8a1RhK3dGbXsYR-27" edge="1">
          <mxGeometry relative="1" as="geometry" />
        </mxCell>
        <mxCell id="W3QgEm8a1RhK3dGbXsYR-25" value="举报者查看&lt;br&gt;举报结果" style="whiteSpace=wrap;html=1;rounded=0;glass=0;strokeWidth=1;shadow=0;strokeColor=#666666;fontColor=#1A1A1A;" parent="WIyWlLk6GJQsqaUBKTNV-1" vertex="1">
          <mxGeometry x="417.5" y="390" width="120" height="50" as="geometry" />
        </mxCell>
        <mxCell id="W3QgEm8a1RhK3dGbXsYR-27" value="结束" style="ellipse;whiteSpace=wrap;html=1;rounded=0;glass=0;strokeWidth=1;shadow=0;strokeColor=#666666;fontColor=#1A1A1A;" parent="WIyWlLk6GJQsqaUBKTNV-1" vertex="1">
          <mxGeometry x="650" y="390" width="100" height="50" as="geometry" />
        </mxCell>
        <mxCell id="WVqeX50r0wsHS2Mz_8iI-2" value="" style="edgeStyle=orthogonalEdgeStyle;rounded=0;orthogonalLoop=1;jettySize=auto;html=1;fontColor=#1A1A1A;strokeColor=default;" edge="1" parent="WIyWlLk6GJQsqaUBKTNV-1" source="WVqeX50r0wsHS2Mz_8iI-0" target="W3QgEm8a1RhK3dGbXsYR-0">
          <mxGeometry relative="1" as="geometry" />
        </mxCell>
        <mxCell id="WVqeX50r0wsHS2Mz_8iI-0" value="开始" style="ellipse;whiteSpace=wrap;html=1;fontColor=#1A1A1A;strokeColor=#666666;" vertex="1" parent="WIyWlLk6GJQsqaUBKTNV-1">
          <mxGeometry x="120" y="200" width="120" height="50" as="geometry" />
        </mxCell>
        <mxCell id="WVqeX50r0wsHS2Mz_8iI-19" value="" style="edgeStyle=orthogonalEdgeStyle;rounded=0;orthogonalLoop=1;jettySize=auto;html=1;fontFamily=Helvetica;fontColor=#1A1A1A;strokeColor=#666666;" edge="1" parent="WIyWlLk6GJQsqaUBKTNV-1" source="WVqeX50r0wsHS2Mz_8iI-20" target="WVqeX50r0wsHS2Mz_8iI-24">
          <mxGeometry relative="1" as="geometry" />
        </mxCell>
        <mxCell id="WVqeX50r0wsHS2Mz_8iI-20" value="&lt;p&gt;学生&lt;span&gt;进入&lt;/span&gt;&lt;/p&gt;&lt;p&gt;&lt;span&gt;我的举报页面&lt;/span&gt;&lt;/p&gt;" style="rounded=0;whiteSpace=wrap;html=1;fontFamily=Helvetica;fontColor=#1A1A1A;strokeColor=#666666;" vertex="1" parent="WIyWlLk6GJQsqaUBKTNV-1">
          <mxGeometry x="160" y="891" width="120" height="49" as="geometry" />
        </mxCell>
        <mxCell id="WVqeX50r0wsHS2Mz_8iI-21" value="" style="edgeStyle=orthogonalEdgeStyle;rounded=0;orthogonalLoop=1;jettySize=auto;html=1;" edge="1" parent="WIyWlLk6GJQsqaUBKTNV-1" source="WVqeX50r0wsHS2Mz_8iI-22" target="WVqeX50r0wsHS2Mz_8iI-29">
          <mxGeometry relative="1" as="geometry" />
        </mxCell>
        <mxCell id="WVqeX50r0wsHS2Mz_8iI-22" value="选择删除&lt;br&gt;某条举报记录" style="whiteSpace=wrap;html=1;rounded=0;fontFamily=Helvetica;fontColor=#1A1A1A;strokeColor=#666666;" vertex="1" parent="WIyWlLk6GJQsqaUBKTNV-1">
          <mxGeometry x="160" y="1051" width="120" height="49" as="geometry" />
        </mxCell>
        <mxCell id="WVqeX50r0wsHS2Mz_8iI-23" value="" style="edgeStyle=orthogonalEdgeStyle;rounded=0;orthogonalLoop=1;jettySize=auto;html=1;fontFamily=Helvetica;fontColor=#1A1A1A;strokeColor=#666666;" edge="1" parent="WIyWlLk6GJQsqaUBKTNV-1" source="WVqeX50r0wsHS2Mz_8iI-24" target="WVqeX50r0wsHS2Mz_8iI-22">
          <mxGeometry relative="1" as="geometry" />
        </mxCell>
        <mxCell id="WVqeX50r0wsHS2Mz_8iI-24" value="展示我的已经提交&lt;br&gt;的举报记录列表" style="rounded=0;whiteSpace=wrap;html=1;fontFamily=Helvetica;fontColor=#1A1A1A;strokeColor=#666666;" vertex="1" parent="WIyWlLk6GJQsqaUBKTNV-1">
          <mxGeometry x="160" y="971" width="120" height="50" as="geometry" />
        </mxCell>
        <mxCell id="WVqeX50r0wsHS2Mz_8iI-25" value="" style="edgeStyle=orthogonalEdgeStyle;rounded=0;orthogonalLoop=1;jettySize=auto;html=1;" edge="1" parent="WIyWlLk6GJQsqaUBKTNV-1" source="WVqeX50r0wsHS2Mz_8iI-26" target="WVqeX50r0wsHS2Mz_8iI-20">
          <mxGeometry relative="1" as="geometry" />
        </mxCell>
        <mxCell id="WVqeX50r0wsHS2Mz_8iI-26" value="开始" style="ellipse;whiteSpace=wrap;html=1;strokeColor=#666666;fontColor=#1A1A1A;rounded=0;" vertex="1" parent="WIyWlLk6GJQsqaUBKTNV-1">
          <mxGeometry x="160" y="810" width="120" height="45" as="geometry" />
        </mxCell>
        <mxCell id="WVqeX50r0wsHS2Mz_8iI-27" value="是" style="edgeStyle=orthogonalEdgeStyle;rounded=0;orthogonalLoop=1;jettySize=auto;html=1;" edge="1" parent="WIyWlLk6GJQsqaUBKTNV-1" source="WVqeX50r0wsHS2Mz_8iI-29" target="WVqeX50r0wsHS2Mz_8iI-31">
          <mxGeometry relative="1" as="geometry" />
        </mxCell>
        <mxCell id="WVqeX50r0wsHS2Mz_8iI-28" value="否" style="edgeStyle=orthogonalEdgeStyle;rounded=0;orthogonalLoop=1;jettySize=auto;html=1;entryX=1;entryY=0.5;entryDx=0;entryDy=0;" edge="1" parent="WIyWlLk6GJQsqaUBKTNV-1" source="WVqeX50r0wsHS2Mz_8iI-29" target="WVqeX50r0wsHS2Mz_8iI-24">
          <mxGeometry relative="1" as="geometry">
            <Array as="points">
              <mxPoint x="320" y="1180" />
              <mxPoint x="320" y="996" />
            </Array>
          </mxGeometry>
        </mxCell>
        <mxCell id="WVqeX50r0wsHS2Mz_8iI-29" value="确认删除" style="rhombus;whiteSpace=wrap;html=1;strokeColor=#666666;fontColor=#1A1A1A;rounded=0;" vertex="1" parent="WIyWlLk6GJQsqaUBKTNV-1">
          <mxGeometry x="160" y="1150" width="120" height="60" as="geometry" />
        </mxCell>
        <mxCell id="WVqeX50r0wsHS2Mz_8iI-30" value="" style="edgeStyle=orthogonalEdgeStyle;rounded=0;orthogonalLoop=1;jettySize=auto;html=1;" edge="1" parent="WIyWlLk6GJQsqaUBKTNV-1" source="WVqeX50r0wsHS2Mz_8iI-31" target="WVqeX50r0wsHS2Mz_8iI-32">
          <mxGeometry relative="1" as="geometry" />
        </mxCell>
        <mxCell id="WVqeX50r0wsHS2Mz_8iI-31" value="删除成功&lt;br&gt;更新我的举报记录列表&lt;br&gt;更新管理员管理界面" style="whiteSpace=wrap;html=1;strokeColor=#666666;fontColor=#1A1A1A;rounded=0;" vertex="1" parent="WIyWlLk6GJQsqaUBKTNV-1">
          <mxGeometry x="145" y="1270" width="150" height="70" as="geometry" />
        </mxCell>
        <mxCell id="WVqeX50r0wsHS2Mz_8iI-32" value="结束" style="ellipse;whiteSpace=wrap;html=1;strokeColor=#666666;fontColor=#1A1A1A;rounded=0;" vertex="1" parent="WIyWlLk6GJQsqaUBKTNV-1">
          <mxGeometry x="160" y="1405" width="120" height="50" as="geometry" />
        </mxCell>
        <mxCell id="WVqeX50r0wsHS2Mz_8iI-33" value="" style="edgeStyle=orthogonalEdgeStyle;rounded=0;orthogonalLoop=1;jettySize=auto;html=1;fontFamily=Helvetica;fontColor=#1A1A1A;strokeColor=#666666;" edge="1" parent="WIyWlLk6GJQsqaUBKTNV-1" source="WVqeX50r0wsHS2Mz_8iI-34" target="WVqeX50r0wsHS2Mz_8iI-38">
          <mxGeometry relative="1" as="geometry" />
        </mxCell>
        <mxCell id="WVqeX50r0wsHS2Mz_8iI-34" value="&lt;p&gt;管理员进入&lt;/p&gt;&lt;p&gt;举报管理页面&lt;br&gt;&lt;/p&gt;" style="rounded=0;whiteSpace=wrap;html=1;fontFamily=Helvetica;fontColor=#1A1A1A;strokeColor=#666666;" vertex="1" parent="WIyWlLk6GJQsqaUBKTNV-1">
          <mxGeometry x="480" y="891" width="120" height="49" as="geometry" />
        </mxCell>
        <mxCell id="WVqeX50r0wsHS2Mz_8iI-35" value="" style="edgeStyle=orthogonalEdgeStyle;rounded=0;orthogonalLoop=1;jettySize=auto;html=1;" edge="1" parent="WIyWlLk6GJQsqaUBKTNV-1" source="WVqeX50r0wsHS2Mz_8iI-36" target="WVqeX50r0wsHS2Mz_8iI-45">
          <mxGeometry relative="1" as="geometry" />
        </mxCell>
        <mxCell id="WVqeX50r0wsHS2Mz_8iI-36" value="选择处理某条&lt;br&gt;举报记录" style="whiteSpace=wrap;html=1;rounded=0;fontFamily=Helvetica;fontColor=#1A1A1A;strokeColor=#666666;" vertex="1" parent="WIyWlLk6GJQsqaUBKTNV-1">
          <mxGeometry x="480" y="1051" width="120" height="49" as="geometry" />
        </mxCell>
        <mxCell id="WVqeX50r0wsHS2Mz_8iI-37" value="" style="edgeStyle=orthogonalEdgeStyle;rounded=0;orthogonalLoop=1;jettySize=auto;html=1;fontFamily=Helvetica;fontColor=#1A1A1A;strokeColor=#666666;" edge="1" parent="WIyWlLk6GJQsqaUBKTNV-1" source="WVqeX50r0wsHS2Mz_8iI-38" target="WVqeX50r0wsHS2Mz_8iI-36">
          <mxGeometry relative="1" as="geometry" />
        </mxCell>
        <mxCell id="WVqeX50r0wsHS2Mz_8iI-38" value="展示已经收到的&lt;br&gt;举报记录列表" style="rounded=0;whiteSpace=wrap;html=1;fontFamily=Helvetica;fontColor=#1A1A1A;strokeColor=#666666;" vertex="1" parent="WIyWlLk6GJQsqaUBKTNV-1">
          <mxGeometry x="480" y="971" width="120" height="50" as="geometry" />
        </mxCell>
        <mxCell id="WVqeX50r0wsHS2Mz_8iI-39" value="" style="edgeStyle=orthogonalEdgeStyle;rounded=0;orthogonalLoop=1;jettySize=auto;html=1;" edge="1" parent="WIyWlLk6GJQsqaUBKTNV-1" source="WVqeX50r0wsHS2Mz_8iI-40" target="WVqeX50r0wsHS2Mz_8iI-34">
          <mxGeometry relative="1" as="geometry" />
        </mxCell>
        <mxCell id="WVqeX50r0wsHS2Mz_8iI-40" value="开始" style="ellipse;whiteSpace=wrap;html=1;strokeColor=#666666;fontColor=#1A1A1A;rounded=0;" vertex="1" parent="WIyWlLk6GJQsqaUBKTNV-1">
          <mxGeometry x="480" y="810" width="120" height="45" as="geometry" />
        </mxCell>
        <mxCell id="WVqeX50r0wsHS2Mz_8iI-41" value="" style="edgeStyle=orthogonalEdgeStyle;rounded=0;orthogonalLoop=1;jettySize=auto;html=1;" edge="1" parent="WIyWlLk6GJQsqaUBKTNV-1" source="WVqeX50r0wsHS2Mz_8iI-42" target="WVqeX50r0wsHS2Mz_8iI-43">
          <mxGeometry relative="1" as="geometry" />
        </mxCell>
        <mxCell id="WVqeX50r0wsHS2Mz_8iI-42" value="更新成功&lt;br&gt;更新首页展示&lt;br&gt;更新对应板块展示" style="whiteSpace=wrap;html=1;strokeColor=#666666;fontColor=#1A1A1A;rounded=0;" vertex="1" parent="WIyWlLk6GJQsqaUBKTNV-1">
          <mxGeometry x="487.5" y="1315" width="105" height="60" as="geometry" />
        </mxCell>
        <mxCell id="WVqeX50r0wsHS2Mz_8iI-43" value="结束" style="ellipse;whiteSpace=wrap;html=1;strokeColor=#666666;fontColor=#1A1A1A;rounded=0;" vertex="1" parent="WIyWlLk6GJQsqaUBKTNV-1">
          <mxGeometry x="480" y="1405" width="120" height="45" as="geometry" />
        </mxCell>
        <mxCell id="WVqeX50r0wsHS2Mz_8iI-51" value="" style="edgeStyle=orthogonalEdgeStyle;rounded=0;orthogonalLoop=1;jettySize=auto;html=1;fontColor=#1A1A1A;strokeColor=default;" edge="1" parent="WIyWlLk6GJQsqaUBKTNV-1" source="WVqeX50r0wsHS2Mz_8iI-45" target="WVqeX50r0wsHS2Mz_8iI-50">
          <mxGeometry relative="1" as="geometry" />
        </mxCell>
        <mxCell id="WVqeX50r0wsHS2Mz_8iI-45" value="&lt;span&gt;输入&lt;/span&gt;&lt;br&gt;&lt;span&gt;修改内容&lt;/span&gt;" style="whiteSpace=wrap;html=1;strokeColor=#666666;fontColor=#1A1A1A;rounded=0;" vertex="1" parent="WIyWlLk6GJQsqaUBKTNV-1">
          <mxGeometry x="480" y="1130" width="120" height="50" as="geometry" />
        </mxCell>
        <mxCell id="WVqeX50r0wsHS2Mz_8iI-48" value="是" style="edgeStyle=orthogonalEdgeStyle;rounded=0;orthogonalLoop=1;jettySize=auto;html=1;" edge="1" parent="WIyWlLk6GJQsqaUBKTNV-1" target="WVqeX50r0wsHS2Mz_8iI-42">
          <mxGeometry relative="1" as="geometry">
            <mxPoint x="540" y="1265" as="sourcePoint" />
          </mxGeometry>
        </mxCell>
        <mxCell id="WVqeX50r0wsHS2Mz_8iI-52" style="edgeStyle=orthogonalEdgeStyle;rounded=0;orthogonalLoop=1;jettySize=auto;html=1;entryX=1;entryY=0.5;entryDx=0;entryDy=0;fontColor=#1A1A1A;strokeColor=default;" edge="1" parent="WIyWlLk6GJQsqaUBKTNV-1" source="WVqeX50r0wsHS2Mz_8iI-50" target="WVqeX50r0wsHS2Mz_8iI-38">
          <mxGeometry relative="1" as="geometry">
            <Array as="points">
              <mxPoint x="640" y="1240" />
              <mxPoint x="640" y="996" />
            </Array>
          </mxGeometry>
        </mxCell>
        <mxCell id="WVqeX50r0wsHS2Mz_8iI-50" value="确认保存" style="rhombus;whiteSpace=wrap;html=1;strokeColor=#666666;fontColor=#1A1A1A;rounded=0;" vertex="1" parent="WIyWlLk6GJQsqaUBKTNV-1">
          <mxGeometry x="490" y="1210" width="100" height="60" as="geometry" />
        </mxCell>
      </root>
    </mxGraphModel>
  </diagram>
</mxfile>
